<svg width="32" height="32" viewBox="0 0 32 32" fill="none" xmlns="http://www.w3.org/2000/svg">
<path d="M24.5916 22.3652C25.2177 22.9913 25.2177 23.9652 24.5916 24.5913C24.2786 24.9043 23.896 25.0435 23.4786 25.0435C23.0612 25.0435 22.6786 24.9043 22.3655 24.5913L16.0003 18.2261L9.63511 24.5913C9.32206 24.9043 8.93945 25.0435 8.52206 25.0435C8.10467 25.0435 7.72206 24.9043 7.40902 24.5913C6.78293 23.9652 6.78293 22.9913 7.40902 22.3652L13.7742 16L7.40902 9.63477C6.78293 9.00868 6.78293 8.03477 7.40902 7.40868C8.03511 6.7826 9.00902 6.7826 9.63511 7.40868L16.0003 13.7739L22.3655 7.40868C22.9916 6.7826 23.9655 6.7826 24.5916 7.40868C25.2177 8.03477 25.2177 9.00868 24.5916 9.63477L18.2264 16L24.5916 22.3652Z" fill="#5D4E00"/>
</svg>
