<svg width="32" height="32" viewBox="0 0 32 32" fill="none" xmlns="http://www.w3.org/2000/svg">
<path d="M27.1301 8.1739H4.86927C3.61709 8.1739 2.6084 7.1652 2.6084 5.91303C2.6084 4.66086 3.61709 3.65216 4.86927 3.65216H27.1301C28.3823 3.65216 29.391 4.66086 29.391 5.91303C29.391 7.1652 28.3823 8.1739 27.1301 8.1739ZM29.391 16C29.391 14.7478 28.3823 13.7391 27.1301 13.7391H4.86927C3.61709 13.7391 2.6084 14.7478 2.6084 16C2.6084 17.2522 3.61709 18.2609 4.86927 18.2609H27.1301C28.3823 18.2609 29.391 17.2522 29.391 16ZM29.391 26.0869C29.391 24.8348 28.3823 23.8261 27.1301 23.8261H4.86927C3.61709 23.8261 2.6084 24.8348 2.6084 26.0869C2.6084 27.3391 3.61709 28.3478 4.86927 28.3478H27.1301C28.3823 28.3478 29.391 27.3391 29.391 26.0869Z" fill="#5D4E00"/>
</svg>
