<svg width="29" height="28" viewBox="0 0 29 28" fill="none" xmlns="http://www.w3.org/2000/svg">
<path d="M24.125 5.83331H23.25H21.5H16.8334H15.375H14.2084C13.0884 5.83331 12.1667 6.75498 12.1667 7.87498V17.7916C12.1667 18.9116 13.0884 19.8333 14.2084 19.8333H24.125C25.245 19.8333 26.1667 18.9116 26.1667 17.7916V7.87498C26.1667 6.75498 25.245 5.83331 24.125 5.83331ZM16.8334 10.7916V7.58331H21.5V10.7916C21.5 11.27 21.1034 11.6666 20.625 11.6666H17.7084C17.23 11.6666 16.8334 11.27 16.8334 10.7916ZM22.9584 16.9166H21.2084C20.73 16.9166 20.3334 16.52 20.3334 16.0416C20.3334 15.5633 20.73 15.1666 21.2084 15.1666H22.9584C23.4367 15.1666 23.8334 15.5633 23.8334 16.0416C23.8334 16.52 23.4367 16.9166 22.9584 16.9166Z" fill="white"/>
<path d="M18 23.3333H4.00002V3.5C4.00002 2.85833 4.52502 2.33333 5.16669 2.33333H16.8334C17.475 2.33333 18 2.85833 18 3.5H20.3334C20.3334 1.575 18.7584 0 16.8334 0H5.16669C3.24169 0 1.66669 1.575 1.66669 3.5V24.5C1.66669 26.425 3.24169 28 5.16669 28H16.8334C18.7584 28 20.3334 26.425 20.3334 24.5V22.1667H18V23.3333Z" fill="white"/>
</svg>
