<svg xmlns="http://www.w3.org/2000/svg" width="32" height="32" viewBox="0 0 32 32" fill="none"><path d="M29.3334 22.5598V26.5598C29.3349 26.9312 29.2589 27.2987 29.1101 27.639C28.9613 27.9792 28.7431 28.2846 28.4695 28.5357C28.1959 28.7867 27.8728 28.9778 27.5211 29.0968C27.1693 29.2158 26.7966 29.2599 26.4267 29.2265C22.3239 28.7807 18.3827 27.3787 14.9201 25.1332C11.6985 23.0861 8.96719 20.3547 6.92007 17.1332C4.66671 13.6548 3.2644 9.6945 2.82674 5.57318C2.79342 5.20447 2.83724 4.83286 2.95541 4.48201C3.07357 4.13116 3.2635 3.80876 3.51309 3.53534C3.76269 3.26192 4.06648 3.04346 4.40513 2.89387C4.74378 2.74429 5.10986 2.66686 5.48007 2.66651H9.48007C10.1271 2.66014 10.7545 2.88928 11.2451 3.31122C11.7357 3.73316 12.0562 4.31911 12.1467 4.95984C12.3156 6.23993 12.6287 7.49681 13.0801 8.70651C13.2595 9.18374 13.2983 9.7024 13.1919 10.201C13.0856 10.6996 12.8386 11.1573 12.4801 11.5198L10.7867 13.2132C12.6848 16.5512 15.4487 19.3151 18.7867 21.2132L20.4801 19.5198C20.8426 19.1614 21.3003 18.9143 21.7989 18.808C22.2975 18.7016 22.8162 18.7405 23.2934 18.9198C24.5031 19.3712 25.76 19.6843 27.0401 19.8532C27.6878 19.9446 28.2793 20.2708 28.7021 20.7698C29.125 21.2689 29.3496 21.9059 29.3334 22.5598Z" fill="white" stroke="#202020" stroke-width="2" stroke-linecap="round" stroke-linejoin="round"></path></svg>